<svg version="1.2" xmlns="http://www.w3.org/2000/svg" viewBox="0 0 1506 309" width="1506" height="309">
	<title>altair-svg</title>
	<style>
		.s0 { fill: #fa4616 } 
		.s1 { fill: #005776 } 
	</style>
	<path id="Layer" fill-rule="evenodd" class="s0" d="m347 244.6l-31.8 55.9c-3.4 5.8-10.1 9.1-16.9 7.2-40-10.1-82-14.9-123.4-14.9-41.5 0-83 4.8-123.5 14.9-6.7 1.4-13.5-1.4-16.8-7.2l-31.9-55.4c-3.3-5.8-2.4-13.5 2.5-18.3 57.8-61.2 100.2-134.8 123.4-215.7 1.9-6.3 7.7-11.1 14.5-11.1h64.1c6.7 0 12.5 4.3 14.4 11.1 23.2 80.9 65.6 154.5 123.5 215.7 4.3 4.8 5.3 12 1.9 17.8zm-71.8 28.4c0.9 0 1.9-1.4 1.4-2.4l-71.3-220.5-0.5-0.5c-0.5-1-2-1-2.4 0l-153.9 172.4c-0.4 0.5-0.4 0.5-0.4 1-0.5 0.9 0.4 1.9 1.4 2.4l224.7 48.1c0.5 0 0.5 0 1-0.5z"/>
	<path id="Layer" fill-rule="evenodd" class="s1" d="m576.4 52.3l88.7 203.2h-42.4l-20.3-47.7h-89.2l-20.2 47.7h-41.5l89.2-203.2zm11.6 119.9l-29.9-68.9-29.9 68.9zm147.5 46.2h103.7v37.1h-143.7v-201.8h40zm375.2-166.1l89.2 203.2h-42.5l-20.2-47.6h-89.2l-20.3 47.6h-41.4l89.2-203.2zm12 119.9l-29.9-68.8-29.9 68.8zm110.9-118.4h40.1v201.7h-40.1zm272 202.3h-47.8l-48.7-68.9h-39v68.4h-40v-201.8h90.6c46.8 0 75.7 25.1 75.7 65 0 29.9-16.4 52-45.3 61.2zm-135.5-104.5h47.7c23.7 0 38.1-11.6 38.1-30.3 0-19.8-13.5-30.4-38.1-30.4h-47.7zm-377.5-97.7v38.5h-62.2v163.7h-41v-163.7h-62.2v-38.5z"/>
</svg>