<?xml version="1.0" encoding="UTF-8" standalone="no" ?>
<!DOCTYPE svg PUBLIC "-//W3C//DTD SVG 1.1//EN" "http://www.w3.org/Graphics/SVG/1.1/DTD/svg11.dtd">
<svg xmlns="http://www.w3.org/2000/svg" xmlns:xlink="http://www.w3.org/1999/xlink" version="1.1" width="1080" height="1080" viewBox="0 0 1080 1080" xml:space="preserve">
<desc>Created with Fabric.js 5.2.4</desc>
<defs>
</defs>
<g transform="matrix(1 0 0 1 540 540)" id="35ca351d-03a7-4b0c-9f96-dd8b9f27b5e8"  >
<rect style="stroke: none; stroke-width: 1; stroke-dasharray: none; stroke-linecap: butt; stroke-dashoffset: 0; stroke-linejoin: miter; stroke-miterlimit: 4; fill: rgb(255,255,255); fill-rule: nonzero; opacity: 1;" vector-effect="non-scaling-stroke"  x="-540" y="-540" rx="0" ry="0" width="1080" height="1080" />
</g>
<g transform="matrix(1 0 0 1 540 540)" id="d4846082-9ced-4df8-b113-9f15eb4d6a30"  >
</g>
<g transform="matrix(1 0 0 1 540 540)"  >
<g style="" vector-effect="non-scaling-stroke"   >
		<g transform="matrix(45.33 0 0 45.33 -279.96 -57.9)"  >
<circle style="stroke: none; stroke-width: 1; stroke-dasharray: none; stroke-linecap: butt; stroke-dashoffset: 0; stroke-linejoin: miter; stroke-miterlimit: 4; fill: rgb(3,1,4); fill-rule: nonzero; opacity: 1;" vector-effect="non-scaling-stroke"  cx="0" cy="0" r="1.11" />
</g>
		<g transform="matrix(45.33 0 0 45.33 -279.96 -57.9)"  >
<path style="stroke: none; stroke-width: 1; stroke-dasharray: none; stroke-linecap: butt; stroke-dashoffset: 0; stroke-linejoin: miter; stroke-miterlimit: 4; fill: rgb(3,1,4); fill-rule: nonzero; opacity: 1;" vector-effect="non-scaling-stroke"  transform=" translate(-2.65, -7.55)" d="M 5.296 7.546 C 5.296 6.086 4.1080000000000005 4.898 2.648 4.898 C 1.189 4.898 0 6.086 0 7.546 C 0 9.006 1.188 10.194 2.648 10.194 C 4.108 10.194 5.296 9.006 5.296 7.546 z M 2.648 9.567 C 1.534 9.567 0.6270000000000002 8.661 0.6270000000000002 7.546 C 0.6270000000000002 6.431000000000001 1.5340000000000003 5.525 2.648 5.525 C 3.763 5.525 4.6690000000000005 6.431 4.6690000000000005 7.546 C 4.6690000000000005 8.661000000000001 3.762 9.567 2.648 9.567 z" stroke-linecap="round" />
</g>
		<g transform="matrix(45.33 0 0 45.33 -43.02 166.43)"  >
<path style="stroke: none; stroke-width: 1; stroke-dasharray: none; stroke-linecap: butt; stroke-dashoffset: 0; stroke-linejoin: miter; stroke-miterlimit: 4; fill: rgb(3,1,4); fill-rule: nonzero; opacity: 1;" vector-effect="non-scaling-stroke"  transform=" translate(-7.87, -12.49)" d="M 5.655 9.221 C 5.527 9.576 5.324 9.91 5.041 10.194 C 4.735 10.499 4.373 10.71 3.9890000000000003 10.835 L 6.885 13.733 L 6.324999999999999 13.733 L 6.324999999999999 15.768 L 11.759999999999998 15.768 L 11.759999999999998 13.733 L 10.163999999999998 13.733 L 5.655 9.221 z" stroke-linecap="round" />
</g>
		<g transform="matrix(45.33 0 0 45.33 120 -177.93)"  >
<path style="stroke: none; stroke-width: 1; stroke-dasharray: none; stroke-linecap: butt; stroke-dashoffset: 0; stroke-linejoin: miter; stroke-miterlimit: 4; fill: rgb(3,1,4); fill-rule: nonzero; opacity: 1;" vector-effect="non-scaling-stroke"  transform=" translate(-11.47, -4.9)" d="M 17.572 4.686 C 17.468 4.582 17.301 4.579 17.195999999999998 4.682 L 14.777999999999999 7.046 L 12.998 6.112 L 12.530999999999999 4.078 L 13.722999999999999 2.46 L 16.929 3.533 C 16.977999999999998 3.549 17.028 3.5509999999999997 17.075 3.54 C 17.162 3.52 17.237 3.457 17.266 3.365 C 17.314999999999998 3.226 17.238999999999997 3.0740000000000003 17.099999999999998 3.028 L 13.708999999999998 1.893 C 13.598999999999998 1.855 13.478999999999997 1.894 13.410999999999998 1.987 L 12.325999999999997 3.457 L 11.430999999999997 3.662 L 11.556999999999997 4.21 L 5.294 5.648 C 5.526 5.944999999999999 5.701 6.294 5.7909999999999995 6.686 C 5.887 7.106 5.8759999999999994 7.525 5.776999999999999 7.918 L 12.075 6.471 L 12.200999999999999 7.019 L 13.154 6.8 L 13.152 6.796 L 14.7 7.609 C 14.758999999999999 7.639 14.824 7.647 14.883999999999999 7.632 C 14.931 7.6209999999999996 14.975999999999999 7.598 15.009999999999998 7.563 L 17.566 5.061999999999999 C 17.672 4.96 17.674 4.791 17.572 4.686 z" stroke-linecap="round" />
</g>
</g>
</g>
</svg>