<?xml version="1.0" encoding="UTF-8" standalone="no" ?>
<!DOCTYPE svg PUBLIC "-//W3C//DTD SVG 1.1//EN" "http://www.w3.org/Graphics/SVG/1.1/DTD/svg11.dtd">
<svg xmlns="http://www.w3.org/2000/svg" xmlns:xlink="http://www.w3.org/1999/xlink" version="1.1" width="1080" height="1080" viewBox="0 0 1080 1080" xml:space="preserve">
<desc>Created with Fabric.js 5.2.4</desc>
<defs>
</defs>
<g transform="matrix(1 0 0 1 540 540)" id="299b86c4-8604-4567-8688-8b31e4e813f3"  >
<rect style="stroke: none; stroke-width: 1; stroke-dasharray: none; stroke-linecap: butt; stroke-dashoffset: 0; stroke-linejoin: miter; stroke-miterlimit: 4; fill: rgb(253,253,253); fill-rule: nonzero; opacity: 1;" vector-effect="non-scaling-stroke"  x="-540" y="-540" rx="0" ry="0" width="1080" height="1080" />
</g>
<g transform="matrix(1 0 0 1 540 540)" id="26bc9a01-4212-455a-8842-ee2fd3bc253c"  >
</g>
<g transform="matrix(7.68 0 0 12.48 540 540)"  >
<g style="" vector-effect="non-scaling-stroke"   >
		<g transform="matrix(0.03 0 0 -0.03 -50.37 -10.64)" id="path14"  >
<path style="stroke: none; stroke-width: 1; stroke-dasharray: none; stroke-linecap: butt; stroke-dashoffset: 0; stroke-linejoin: miter; stroke-miterlimit: 4; fill: rgb(35,46,74); fill-rule: nonzero; opacity: 1;" vector-effect="non-scaling-stroke"  transform=" translate(-109.2, -895.1)" d="M 218.406 895.094 C 218.406 832.77 169.512 782.242 109.199 782.242 C 48.8984 782.242 0 832.77 0 895.094 C 0 957.4060000000001 48.8984 1007.95 109.199 1007.95 C 169.512 1007.95 218.406 957.4060000000001 218.406 895.094" stroke-linecap="round" />
</g>
		<g transform="matrix(0.03 0 0 -0.03 -50.37 0)" id="path16"  >
<path style="stroke: none; stroke-width: 1; stroke-dasharray: none; stroke-linecap: butt; stroke-dashoffset: 0; stroke-linejoin: miter; stroke-miterlimit: 4; fill: rgb(35,46,74); fill-rule: nonzero; opacity: 1;" vector-effect="non-scaling-stroke"  transform=" translate(-109.2, -510.51)" d="M 218.406 510.512 C 218.406 448.188 169.512 397.66 109.199 397.66 C 48.8984 397.66 0 448.188 0 510.512 C 0 572.836 48.8984 623.363 109.199 623.363 C 169.512 623.363 218.406 572.836 218.406 510.51200000000006" stroke-linecap="round" />
</g>
		<g transform="matrix(0.03 0 0 -0.03 -50.37 10.64)" id="path18"  >
<path style="stroke: none; stroke-width: 1; stroke-dasharray: none; stroke-linecap: butt; stroke-dashoffset: 0; stroke-linejoin: miter; stroke-miterlimit: 4; fill: rgb(35,46,74); fill-rule: nonzero; opacity: 1;" vector-effect="non-scaling-stroke"  transform=" translate(-109.2, -125.93)" d="M 218.406 125.934 C 218.406 63.6172 169.512 13.0781 109.199 13.0781 C 48.8984 13.0781 0 63.6172 0 125.934 C 0 188.24599999999998 48.8984 238.785 109.199 238.785 C 169.512 238.785 218.406 188.24599999999998 218.406 125.934" stroke-linecap="round" />
</g>
		<g transform="matrix(0.03 0 0 -0.03 -39.83 0)" id="path20"  >
<path style="stroke: none; stroke-width: 1; stroke-dasharray: none; stroke-linecap: butt; stroke-dashoffset: 0; stroke-linejoin: miter; stroke-miterlimit: 4; fill: rgb(35,46,74); fill-rule: nonzero; opacity: 1;" vector-effect="non-scaling-stroke"  transform=" translate(-490.27, -510.51)" d="M 599.473 510.512 C 599.473 448.188 550.574 397.65999999999997 490.26599999999996 397.65999999999997 C 429.96099999999996 397.65999999999997 381.063 448.188 381.063 510.51199999999994 C 381.063 572.8359999999999 429.961 623.3629999999999 490.26599999999996 623.3629999999999 C 550.574 623.3629999999999 599.473 572.8359999999999 599.473 510.51199999999994" stroke-linecap="round" />
</g>
		<g transform="matrix(0.03 0 0 -0.03 -39.83 -10.64)" id="path22"  >
<path style="stroke: none; stroke-width: 1; stroke-dasharray: none; stroke-linecap: butt; stroke-dashoffset: 0; stroke-linejoin: miter; stroke-miterlimit: 4; fill: rgb(35,46,74); fill-rule: nonzero; opacity: 1;" vector-effect="non-scaling-stroke"  transform=" translate(-490.27, -895.1)" d="M 599.473 895.094 C 599.473 832.7700000000001 550.574 782.2420000000001 490.26599999999996 782.2420000000001 C 429.96099999999996 782.2420000000001 381.063 832.7700000000001 381.063 895.094 C 381.063 957.4060000000001 429.961 1007.95 490.26599999999996 1007.95 C 550.574 1007.95 599.473 957.4060000000001 599.473 895.094" stroke-linecap="round" />
</g>
		<g transform="matrix(0.03 0 0 -0.03 -29.29 0)" id="path24"  >
<path style="stroke: none; stroke-width: 1; stroke-dasharray: none; stroke-linecap: butt; stroke-dashoffset: 0; stroke-linejoin: miter; stroke-miterlimit: 4; fill: rgb(35,46,74); fill-rule: nonzero; opacity: 1;" vector-effect="non-scaling-stroke"  transform=" translate(-871.33, -510.51)" d="M 980.535 510.512 C 980.535 448.188 931.641 397.65999999999997 871.328 397.65999999999997 C 811.023 397.65999999999997 762.129 448.188 762.129 510.51199999999994 C 762.129 572.8359999999999 811.023 623.3629999999999 871.328 623.3629999999999 C 931.641 623.3629999999999 980.535 572.8359999999999 980.535 510.51199999999994" stroke-linecap="round" />
</g>
		<g transform="matrix(0.03 0 0 -0.03 -29.29 -10.64)" id="path26"  >
<path style="stroke: none; stroke-width: 1; stroke-dasharray: none; stroke-linecap: butt; stroke-dashoffset: 0; stroke-linejoin: miter; stroke-miterlimit: 4; fill: rgb(35,46,74); fill-rule: nonzero; opacity: 1;" vector-effect="non-scaling-stroke"  transform=" translate(-871.33, -895.1)" d="M 980.535 895.094 C 980.535 832.7700000000001 931.641 782.2420000000001 871.328 782.2420000000001 C 811.023 782.2420000000001 762.129 832.7700000000001 762.129 895.094 C 762.129 957.4060000000001 811.023 1007.95 871.328 1007.95 C 931.641 1007.95 980.535 957.4060000000001 980.535 895.094" stroke-linecap="round" />
</g>
		<g transform="matrix(0.03 0 0 -0.03 -29.29 10.64)" id="path28"  >
<path style="stroke: none; stroke-width: 1; stroke-dasharray: none; stroke-linecap: butt; stroke-dashoffset: 0; stroke-linejoin: miter; stroke-miterlimit: 4; fill: rgb(35,46,74); fill-rule: nonzero; opacity: 1;" vector-effect="non-scaling-stroke"  transform=" translate(-871.33, -125.93)" d="M 980.535 125.934 C 980.535 63.6172 931.641 13.078099999999992 871.328 13.078099999999992 C 811.023 13.078099999999992 762.129 63.61719999999999 762.129 125.934 C 762.129 188.24599999999998 811.023 238.785 871.328 238.785 C 931.641 238.785 980.535 188.24599999999998 980.535 125.934" stroke-linecap="round" />
</g>
		<g transform="matrix(0.03 0 0 -0.03 -39.83 10.64)" id="path30"  >
<path style="stroke: none; stroke-width: 1; stroke-dasharray: none; stroke-linecap: butt; stroke-dashoffset: 0; stroke-linejoin: miter; stroke-miterlimit: 4; fill: rgb(35,46,74); fill-rule: nonzero; opacity: 1;" vector-effect="non-scaling-stroke"  transform=" translate(-490.27, -125.93)" d="M 599.473 125.934 C 599.473 63.6172 550.574 13.078099999999992 490.26599999999996 13.078099999999992 C 429.96099999999996 13.078099999999992 381.063 63.61719999999999 381.063 125.934 C 381.063 188.24599999999998 429.961 238.785 490.26599999999996 238.785 C 550.574 238.785 599.473 188.24599999999998 599.473 125.934" stroke-linecap="round" />
</g>
		<g transform="matrix(0.03 0 0 -0.03 -7.47 0)" id="path32"  >
<path style="stroke: none; stroke-width: 1; stroke-dasharray: none; stroke-linecap: butt; stroke-dashoffset: 0; stroke-linejoin: miter; stroke-miterlimit: 4; fill: rgb(35,46,74); fill-rule: nonzero; opacity: 1;" vector-effect="non-scaling-stroke"  transform=" translate(-1660.02, -510.52)" d="M 1716.12 865.484 L 1436.97 865.484 L 1436.97 547.289 L 1716.12 547.289 C 1811.9099999999999 547.289 1878.9599999999998 598.203 1878.9599999999998 705.68 C 1878.9599999999998 808.914 1813.2799999999997 865.4839999999999 1716.12 865.4839999999999 z M 1813.28 420.016 L 2008.96 15.5586 L 1843.39 15.5586 L 1653.18 407.281 L 1436.97 407.281 L 1436.97 15.5586 L 1296.03 15.5586 L 1296.03 1005.49 L 1716.12 1005.49 C 1883.07 1005.49 2024.0099999999998 913.563 2024.0099999999998 709.922 C 2024.0099999999998 551.5310000000001 1943.2799999999997 453.961 1813.2799999999997 420.016" stroke-linecap="round" />
</g>
		<g transform="matrix(0.03 0 0 -0.03 18.7 0)" id="path34"  >
<path style="stroke: none; stroke-width: 1; stroke-dasharray: none; stroke-linecap: butt; stroke-dashoffset: 0; stroke-linejoin: miter; stroke-miterlimit: 4; fill: rgb(35,46,74); fill-rule: nonzero; opacity: 1;" vector-effect="non-scaling-stroke"  transform=" translate(-2606.31, -510.52)" d="M 2605.63 872.555 C 2438.6800000000003 872.555 2347 732.5509999999999 2347 510.52299999999997 C 2347 288.49199999999996 2438.68 148.49199999999996 2605.63 148.49199999999996 C 2773.9500000000003 148.49199999999996 2865.63 288.49199999999996 2865.63 510.52299999999997 C 2865.63 732.5509999999999 2773.9500000000003 872.555 2605.63 872.555 z M 2605.63 0 C 2357.9500000000003 0 2200.58 210.719 2200.58 510.523 C 2200.58 810.328 2357.95 1021.04 2605.63 1021.04 C 2854.6800000000003 1021.04 3012.04 810.328 3012.04 510.52299999999997 C 3012.04 210.719 2854.68 0 2605.63 0" stroke-linecap="round" />
</g>
		<g transform="matrix(0.03 0 0 -0.03 43.77 0)" id="path36"  >
<path style="stroke: none; stroke-width: 1; stroke-dasharray: none; stroke-linecap: butt; stroke-dashoffset: 0; stroke-linejoin: miter; stroke-miterlimit: 4; fill: rgb(35,46,74); fill-rule: nonzero; opacity: 1;" vector-effect="non-scaling-stroke"  transform=" translate(-3512.92, -510.52)" d="M 3506.08 0 C 3366.49 0 3246.08 62.2227 3165.34 159.801 L 3267.98 263.043 C 3332.29 190.914 3426.71 145.66000000000003 3517.02 145.66000000000003 C 3651.12 145.66000000000003 3715.44 193.74600000000004 3715.44 289.90600000000006 C 3715.44 366.2730000000001 3659.35 404.45700000000005 3499.23 453.96100000000007 C 3296.71 516.176 3199.56 568.5000000000001 3199.56 745.2730000000001 C 3199.56 916.3910000000001 3339.13 1021.0400000000002 3515.65 1021.0400000000002 C 3645.65 1021.0400000000002 3744.17 971.5430000000002 3829.01 886.6950000000002 L 3727.76 780.629 C 3667.55 844.27 3599.13 875.383 3504.7200000000003 875.383 C 3392.4900000000002 875.383 3344.6000000000004 818.813 3344.6000000000004 752.3480000000001 C 3344.6000000000004 683.051 3388.3900000000003 649.109 3553.9700000000003 598.2030000000001 C 3742.8 538.805 3860.5 476.582 3860.5 299.809 C 3860.5 121.617 3751.03 0 3506.08 0" stroke-linecap="round" />
</g>
</g>
</g>
</svg>